<?xml version="1.0" standalone="no"?>
<!DOCTYPE svg PUBLIC "-//W3C//DTD SVG 20010904//EN"
 "http://www.w3.org/TR/2001/REC-SVG-20010904/DTD/svg10.dtd">
<svg version="1.0" xmlns="http://www.w3.org/2000/svg"
 width="700.000000pt" height="700.000000pt" viewBox="0 0 700.000000 700.000000"
 preserveAspectRatio="xMidYMid meet">
<metadata>
Created by potrace 1.11, written by Peter Selinger 2001-2013
</metadata>
<g transform="translate(0.000000,700.000000) scale(0.100000,-0.100000)"
fill="#000000" stroke="none">
<path d="M3309 6506 c-2 -2 -40 -7 -84 -10 -119 -11 -136 -13 -240 -31 -601
-100 -1188 -409 -1625 -855 -239 -244 -404 -475 -555 -779 -119 -239 -224
-547 -259 -761 -2 -14 -9 -52 -15 -85 -26 -148 -36 -277 -36 -485 0 -220 10
-357 35 -495 5 -27 12 -66 15 -85 12 -71 65 -270 98 -371 195 -584 561 -1092
1062 -1471 63 -47 229 -159 255 -172 8 -4 42 -22 75 -42 80 -46 252 -129 345
-167 169 -68 426 -144 546 -162 21 -4 55 -10 74 -15 19 -5 64 -12 100 -15 36
-3 72 -8 80 -10 83 -21 539 -21 646 -1 11 2 51 7 89 12 39 4 72 8 75 9 3 1 25
5 50 9 330 59 680 189 985 367 679 397 1191 1069 1389 1823 100 379 127 796
77 1176 -118 885 -618 1665 -1381 2154 -110 70 -373 204 -500 255 -154 61
-379 126 -539 156 -84 16 -104 19 -196 31 -27 3 -61 8 -75 10 -30 6 -486 15
-491 10z m441 -456 c135 -15 313 -46 400 -71 25 -7 50 -13 55 -15 82 -19 324
-112 410 -157 22 -12 42 -21 45 -22 10 -1 155 -83 193 -109 21 -14 40 -26 42
-26 9 0 161 -110 214 -154 241 -203 416 -399 568 -641 133 -211 247 -480 307
-724 23 -92 28 -118 42 -205 3 -21 8 -48 10 -60 12 -59 19 -191 19 -376 0
-217 -8 -321 -35 -455 -5 -27 -11 -61 -14 -75 -6 -38 -53 -212 -66 -245 -7
-17 -14 -39 -16 -50 -12 -63 -130 -322 -207 -455 -318 -547 -828 -958 -1432
-1155 -71 -23 -144 -44 -178 -51 -10 -2 -26 -5 -35 -8 -9 -3 -30 -8 -47 -10
-16 -3 -55 -10 -85 -16 -55 -11 -81 -14 -220 -29 -75 -9 -432 -6 -480 3 -14 2
-47 7 -75 10 -27 3 -75 10 -105 16 -30 6 -68 13 -85 16 -102 17 -291 75 -428
130 -160 64 -295 136 -452 240 -236 155 -400 304 -600 545 -128 154 -287 428
-374 647 -38 94 -98 287 -117 372 -4 19 -8 37 -9 40 -1 3 -7 39 -14 80 -7 41
-15 84 -17 95 -19 101 -27 520 -11 640 40 318 112 569 243 840 64 133 94 186
175 307 254 379 607 686 1015 883 185 90 463 183 624 210 19 3 42 8 50 10 8 2
42 7 75 11 33 4 85 10 115 13 80 10 413 10 500 1z"/>
<path d="M3437 5655 c-1 -2 -52 -5 -114 -9 -408 -25 -831 -194 -1178 -473
-188 -151 -361 -349 -488 -560 -49 -81 -130 -243 -124 -249 2 -3 33 -9 68 -15
100 -16 100 -16 202 -43 52 -14 140 -42 194 -62 101 -37 295 -132 301 -146 2
-4 8 -8 13 -8 15 0 179 -112 250 -171 132 -109 276 -260 367 -387 34 -48 34
-49 52 58 14 80 59 233 94 319 14 36 26 70 26 77 0 7 3 14 8 16 4 2 17 26 30
53 80 171 236 382 396 535 287 273 627 467 1064 609 l163 53 -88 55 c-280 177
-581 289 -883 328 -98 13 -344 27 -353 20z"/>
<path d="M4774 5200 c3 -25 8 -56 10 -70 29 -172 29 -623 0 -800 -42 -264
-103 -469 -200 -668 -129 -267 -314 -493 -536 -659 -56 -42 -85 -70 -81 -79 9
-23 143 -134 237 -196 167 -110 401 -205 597 -243 40 -8 132 -24 179 -31 52
-8 336 -13 378 -6 25 3 35 16 81 114 94 196 157 395 185 583 27 179 31 228 30
370 -6 680 -309 1279 -868 1715 -17 14 -18 12 -12 -30z"/>
<path d="M4325 4662 c-406 -187 -692 -483 -869 -900 -48 -114 -108 -342 -121
-462 -3 -30 -8 -73 -10 -95 -10 -88 -7 -1847 3 -1857 10 -10 271 -12 357 -3
148 16 176 19 225 31 14 3 36 8 50 10 53 10 209 55 290 84 204 74 463 224 630
364 111 93 200 180 200 194 0 7 -15 12 -32 13 -229 6 -560 85 -783 189 -347
160 -684 458 -873 771 l-22 37 32 18 c18 11 47 26 63 34 60 29 231 144 304
204 311 253 510 557 594 906 14 58 28 123 32 145 7 47 19 355 14 354 -2 0 -40
-17 -84 -37z"/>
<path d="M1389 3949 c0 -13 -2 -31 -4 -39 -1 -8 -6 -33 -9 -55 -4 -23 -8 -52
-11 -65 -7 -38 -17 -176 -19 -265 -3 -125 12 -293 35 -410 5 -27 12 -65 15
-84 10 -58 62 -226 105 -334 167 -419 474 -787 859 -1027 77 -48 290 -160 304
-160 3 0 25 -9 49 -19 23 -11 77 -31 121 -45 l78 -25 -5 502 c-6 483 -7 531
-22 642 -21 153 -96 392 -162 513 -13 23 -35 63 -49 90 -103 187 -307 401
-514 538 -181 120 -453 223 -655 248 -27 4 -65 9 -82 12 -29 6 -33 4 -34 -17z"/>
</g>
</svg>
