<svg xmlns="http://www.w3.org/2000/svg" xmlns:xlink="http://www.w3.org/1999/xlink" viewBox="0 0 694.5 216.3">
  <defs>
    <path id="a" d="M2022.4 3016.3h1366v-3448"/>
  </defs>
  <clipPath id="b">
    <use xlink:href="#a" overflow="visible"/>
  </clipPath>
  <g clip-path="url(#b)">
    <text fill="#FFF" transform="translate(2608.387 -356.73)" font-family="'Merriweather-Light'" font-size="30">
      Green
    </text>
  </g>
  <g clip-path="url(#b)">
    <text fill="#FFF" transform="translate(2695.984 -356.73)" font-family="'Merriweather-Regular'" font-size="30">
      leaders
    </text>
  </g>
  <path fill="#919844" d="M158.4-448.4c-12.9-3.7-22.4-15.6-22.4-29.7 0-2.3.3-4.6.7-6.7h.1c12.1 1.1 21.5 10.9 21.5 23.8l.1 12.6zm21.5-46.8c.6 10.7-5.5 19.1-14.9 23.7 5.4 8.8 14.1 13.9 24.7 14.3-5.6 6.2-13.8 10.1-22.8 10.1-.9 0-1.7 0-2.6-.1v-24.6c.1-10.1 5.6-19.7 15.6-23.4m-41.3 4.8c4.8-10.9 15.7-18.5 28.3-18.5 6.6 0 12.7 2.1 17.7 5.6 7.9 5.6 13.1 14.8 13.1 25.2 0 5.4-1.4 10.5-3.9 15-8.3.8-16.3-2.4-20.4-6.9 10.6-7.2 13.5-20.4 11.5-33.1-12.6 3.3-23.9 11.6-25.8 25.2-4.6-6.7-11.9-11.5-20.5-12.5M123.9-478c0-23.8 19.3-43.1 43.1-43.1s43.1 19.3 43.1 43.1-19.3 43.1-43.1 43.1c-23.9-.1-43.1-19.4-43.1-43.1m43-36.7c-20.2 0-36.6 16.4-36.6 36.6 0 20.2 16.4 36.6 36.6 36.6 20.2 0 36.6-16.4 36.6-36.6 0-20.2-16.4-36.6-36.6-36.6"/>
  <path fill="#5F4B3D" d="M440.3-478.4c0-9 7.2-16.1 16.4-16.1 7.1 0 13 4.2 15.4 10.3l.3.7h-6.9c-1.9-3.3-5.1-5.3-8.8-5.3-5.6 0-10.1 4.7-10.1 10.3 0 5.7 4.5 10.4 10.1 10.4 3.7 0 6.8-2 8.8-5.3h6.9l-.3.7c-2.3 6.1-8.2 10.3-15.4 10.3-9.2 0-16.4-6.9-16.4-16m-200.1 15.3v-11.8l-11.6-18.9h7.3l7.6 13.3 7.5-13.3h7l-11.5 18.9v11.8m20-30.7l7.6 22.7 7.7-22.7h6.7l-11.1 30.7h-6.7l-11-30.7m70.4 8.1c0 1.9.4 2.4 7.1 4 4 .9 5.8 1.6 7.5 2.7 2.4 1.7 3.7 4 3.7 6.8 0 6.2-4.9 9.9-12.4 9.9-7.6 0-12.5-3.7-12.9-10.2h6.2c.5 3.4 2.8 5 7.1 5 3.8 0 5.8-1.7 5.8-4.2 0-1.3-.5-2.2-2.2-3-.6-.3-1.6-.6-2.6-.9l-1.1-.3-.6-.1c-4-1-7-2-8.4-3-2.1-1.4-3.2-3.6-3.2-6.3 0-5.7 4.6-9.3 11.5-9.3 6.8 0 11 3.2 11.6 9.1H341c-.7-2.7-2.4-3.9-5.7-3.9-3.5 0-5.2 1.5-5.2 3.7m167.4 10.4h-12.6v12.2h-6.2v-30.7h6.2v13h12.6v-13h6.2v30.7h-6.2m22.3-17.5h11.6v5.3h-11.6v6.7H536v5.5h-22.5v-30.7H536v5.5h-16.2m-101.5 20.2c-5.6 0-10.1-4.7-10.1-10.4s4.5-10.4 10.1-10.4 10 4.7 10 10.4c.1 5.8-4.5 10.4-10 10.4m0-26.4c-9.2 0-16.5 7.1-16.5 16.1 0 9 7.1 16 16.5 16 9.2 0 16.4-7.1 16.4-16.1.1-9-7.1-16-16.4-16m-32.1 14.3h-9.3v-8.2h9.3c2.3 0 4.1 1.8 4.1 4.1 0 2.2-1.8 4.1-4.1 4.1m4.4 4.3c3.5-1.3 6-4.7 6-8.7 0-5.1-4.1-9.3-9.2-9.3h-16.8v30.8h6.3v-12.2h7.3l6 12.2h7.1l-6.7-12.8zm-89.7-4.7h11.6v5.3h-11.6v6.7h16.2v5.5h-22.4v-30.7h22.4v5.5h-16.2m258.5 8.1h-9.3v-8.2h9.3c2.3 0 4.1 1.8 4.1 4.1 0 2.2-1.8 4.1-4.1 4.1m4.5 4.3c3.5-1.3 6-4.7 6-8.7 0-5.1-4.1-9.3-9.2-9.3h-16.8v30.8h6.3v-12.2h7.3l6 12.2h7.1l-6.7-12.8z"/>
  <path fill="#2F2F30" d="M5.2-626.1c3.5-6.1 8.2-10.8 14.2-13.9 6-3.2 12.7-4.8 20.2-4.8 4.7 0 8.9.3 12.7 1 3.8.7 7.6 1.4 11.3 2.3l-.8 16.7h-5.5L55-636.4c-1.2-.8-3.1-1.6-5.7-2.3s-6.1-1.1-10.5-1.1c-5.6 0-10.5 1.2-14.8 3.7-4.3 2.5-7.7 6.2-10.2 11.1-2.5 4.9-3.7 10.9-3.7 17.9 0 6.3 1 12.2 3 17.6 2 5.5 5.1 9.9 9.2 13.2 4.1 3.4 9.1 5 15 5 3.7 0 7.3-.4 10.6-1.3s6-2 7.9-3.5V-600l-14.7-1.1v-5.6h30.1v5.6l-6.5 1.1v28.7c-.9 0-1.9.1-3.1.4-1.1.3-2.6.7-4.3 1.3-3.6 1.1-6.9 2-10.1 2.7-3.1.7-6.6 1-10.6 1-7.5 0-14-1.7-19.4-5-5.5-3.3-9.7-7.9-12.6-13.7C1.7-590.4.2-597 .2-604.3c-.3-8.4 1.5-15.7 5-21.8zm78.6 55v-45.1l-8.2-1.9v-4.8l13.4-1.7h.3l2 1.7v3.9l-.1 6.3h.1c.1-.1 1-1.3 2.7-3.3 1.7-2.1 4.3-4.1 7.7-6 3.4-1.9 6.9-2.9 10.4-2.9 1.2 0 2.2.2 3.2.5v9.9c-.3-.3-.9-.7-1.9-1-1-.3-2-.5-3-.5-4 0-7.5.6-10.4 1.9-2.9 1.3-5.5 2.8-7.7 4.6v38.6h14.1v4.8H75.3v-4.4l8.5-.6zm39.6-39.6c2.3-4.4 5.6-7.9 9.7-10.4s8.8-3.7 13.9-3.7c6.3 0 11.2 1.6 14.7 4.9 3.5 3.3 5.4 8 5.6 14.2v1.6c0 3.2-.2 5.5-.6 6.9H129c0 .6 0 1 .1 1.3.1 5.3 1.1 9.7 2.8 13.3 1.7 3.6 4 6.3 6.8 8 2.8 1.8 6 2.6 9.5 2.6 2.9 0 5.9-.5 9.1-1.6 3.1-1.1 5.5-2.3 7.2-3.8l1.7 3.9c-2.1 2.1-5.1 3.9-8.9 5.4-3.9 1.4-7.8 2.2-11.8 2.2-5.4 0-10.1-1.2-13.9-3.7-3.8-2.5-6.7-5.9-8.7-10.4-1.9-4.4-2.9-9.6-2.9-15.4-.1-5.8 1.1-10.8 3.4-15.3zm34.5 8.5c.2-1.4.3-2.8.3-4.1 0-4-1.1-7.2-3.3-9.5-2.2-2.4-5.5-3.5-10-3.5-9.7 0-14.9 5.7-15.7 17.1h28.7zm19.8-8.5c2.3-4.4 5.6-7.9 9.7-10.4s8.8-3.7 13.9-3.7c6.3 0 11.2 1.6 14.7 4.9 3.5 3.3 5.4 8 5.6 14.2v1.6c0 3.2-.2 5.5-.6 6.9h-37.7c0 .6 0 1 .1 1.3.1 5.3 1.1 9.7 2.8 13.3 1.7 3.6 4 6.3 6.8 8 2.8 1.8 6 2.6 9.5 2.6 2.9 0 5.9-.5 9.1-1.6 3.1-1.1 5.5-2.3 7.2-3.8l1.7 3.9c-2.1 2.1-5.1 3.9-8.9 5.4-3.9 1.4-7.8 2.2-11.8 2.2-5.4 0-10.1-1.2-13.9-3.7-3.8-2.5-6.7-5.9-8.7-10.4-1.9-4.4-2.9-9.6-2.9-15.4-.1-5.8 1.1-10.8 3.4-15.3zm34.4 8.5c.2-1.4.3-2.8.3-4.1 0-4-1.1-7.2-3.3-9.5-2.2-2.4-5.5-3.5-10-3.5-9.7 0-14.9 5.7-15.7 17.1h28.7zm22.9 31v-44.9l-8.2-2.1v-4.8l13.5-1.7h.3l2.1 1.7v4.8l-.1 2.7c1.6-1.4 3.7-2.9 6.2-4.3s5.2-2.6 8.1-3.6c2.9-1 5.5-1.4 8-1.4 4.5 0 7.9.9 10.4 2.6 2.4 1.7 4.1 4.3 5.1 7.8.9 3.5 1.4 8.1 1.4 14v29.3l8 .8v4.4H266v-4.4l7.3-.8v-29.3c0-4.3-.3-7.7-.9-10.2-.6-2.5-1.8-4.4-3.5-5.6-1.7-1.3-4.3-1.9-7.6-1.9-2.8 0-5.9.7-9.1 2.1-3.3 1.4-6.1 3.1-8.6 5v39.9l7.7.8v4.4h-23.4v-4.4l7.1-.9zm68.6-1.7v-64.8L295-639v-5.7h30.8v5.7l-10 1.3v64.3h26.1l6.3-17.8 6.9 1.2-3.5 23.9h-56.8v-5.6l8.8-1.2zm58.6-37.9c2.4-4.5 5.7-8 9.9-10.4 4.2-2.5 9-3.7 14.3-3.7 6.6 0 11.7 1.7 15.4 5 3.6 3.3 5.6 8.1 5.8 14.3v1.7c0 3.3-.2 5.8-.6 7.6h-35.8c.1 5.1 1 9.3 2.6 12.6 1.6 3.3 3.7 5.8 6.3 7.4 2.6 1.6 5.5 2.4 8.7 2.4 2.8 0 5.7-.5 8.7-1.5 3-1 5.3-2.1 7-3.4l2.2 5c-1.3 1.3-3.1 2.6-5.4 3.8s-4.8 2.2-7.7 2.9c-2.8.7-5.6 1.1-8.4 1.1-5.8 0-10.7-1.2-14.7-3.7s-7-5.9-8.9-10.3c-2-4.4-2.9-9.5-2.9-15.4-.1-5.7 1.1-10.9 3.5-15.4zm32.9 8.5c.1-1.1.2-2.3.2-3.8 0-3.8-.9-6.8-2.7-9.1s-4.6-3.4-8.5-3.4c-3.9 0-6.9 1.2-9.2 3.7-2.3 2.5-3.5 6.7-3.9 12.6h24.1zm52.8-2.8c0-2.8-.3-5-1-6.5-.7-1.6-1.8-2.8-3.5-3.5-1.7-.7-4-1.1-7-1.1-5.8 0-12 1.4-18.4 4.3h-.1l-2.6-4.7c.9-.8 2.7-1.9 5.4-3.2 2.6-1.3 5.6-2.5 9-3.4 3.4-1 6.6-1.5 9.6-1.5 5 0 9 .7 11.9 2 2.9 1.3 5 3.4 6.2 6.3 1.3 2.9 1.9 6.7 1.9 11.6v32.2h6.3v5.1c-5 1.2-8.8 1.8-11.4 1.8-1.4 0-2.6-.1-3.3-.4-.8-.2-1.3-.7-1.7-1.5-.4-.7-.5-1.9-.5-3.4v-2.5c-1.9 1.8-4.3 3.6-7.3 5.2-3 1.7-6.4 2.5-10.2 2.5-3.3 0-6.3-.6-9-1.8-2.7-1.2-4.9-3.1-6.5-5.6-1.6-2.5-2.4-5.7-2.4-9.4 0-4.6 1.6-8.4 4.8-11.4 3.2-3 7.4-5.2 12.6-6.6 5.2-1.4 11-2.1 17.3-2.1v-2.4zm0 8.1c-5.1 0-9.2.6-12.5 1.7-3.3 1.2-5.6 2.7-7.1 4.6-1.5 1.9-2.2 4.1-2.2 6.5 0 3.6.9 6.3 2.7 8 1.8 1.7 4.2 2.5 7.2 2.5 1.6 0 3.6-.5 5.9-1.4 2.3-.9 4.3-2 6-3.3V-597zm25.6-12.6c2.4-4.7 6-8.4 10.6-11.2 4.6-2.7 10-4.1 16.2-4.1 3 0 6.2.3 9.4 1v-19.3l-10.4-1v-5l19.3-2.1h.3l2.5 1.9v76.3h6.1v5.4c-2.2.6-4.2 1-6 1.3-1.7.3-3.5.5-5.4.5-1.3 0-2.4-.1-3.2-.4-.8-.3-1.4-.8-1.8-1.6-.4-.8-.6-1.9-.6-3.4v-2.7c-2.1 2.3-4.7 4.2-7.7 5.8-3 1.5-6.4 2.3-10.1 2.3-4.2 0-8.1-1-11.6-3.1s-6.3-5.2-8.4-9.4c-2.1-4.2-3.1-9.4-3.1-15.5.2-5.8 1.4-11 3.9-15.7zm36.2-5.9c-.5-.9-1.8-1.6-3.7-2.3-2-.6-4.1-1-6.4-1-5.2 0-9.3 1.9-12.4 5.8-3.1 3.9-4.7 9.9-4.7 18.2 0 4.7.7 8.6 2 11.7 1.3 3.1 3.1 5.4 5.4 6.9 2.3 1.5 4.8 2.2 7.7 2.2 2.5 0 4.8-.5 6.9-1.6 2.1-1 3.8-2.2 5.1-3.6v-36.3zm26.6 4.7c2.4-4.5 5.7-8 9.9-10.4 4.2-2.5 9-3.7 14.3-3.7 6.6 0 11.7 1.7 15.4 5 3.6 3.3 5.6 8.1 5.8 14.3v1.7c0 3.3-.2 5.8-.6 7.6h-35.8c.1 5.1 1 9.3 2.6 12.6 1.6 3.3 3.7 5.8 6.3 7.4 2.6 1.6 5.5 2.4 8.7 2.4 2.8 0 5.7-.5 8.7-1.5 3-1 5.3-2.1 7-3.4l2.2 5c-1.3 1.3-3.1 2.6-5.4 3.8s-4.8 2.2-7.7 2.9c-2.8.7-5.6 1.1-8.4 1.1-5.8 0-10.7-1.2-14.7-3.7s-7-5.9-8.9-10.3c-2-4.4-2.9-9.5-2.9-15.4-.1-5.7 1.1-10.9 3.5-15.4zm32.9 8.5c.1-1.1.2-2.3.2-3.8 0-3.8-.9-6.8-2.7-9.1s-4.6-3.4-8.5-3.4c-3.9 0-6.9 1.2-9.2 3.7-2.3 2.5-3.5 6.7-3.9 12.6h24.1zm26.7 29.9v-41.9l-7.3-2.1v-6.2l14.8-2.1h.3l2.5 2v3.4l-.1 7h.1c.6-1.2 1.8-2.8 3.6-4.7 1.8-2 4.1-3.8 6.9-5.4 2.8-1.6 5.9-2.5 9.2-2.5 1.3 0 2.5.2 3.4.6v13.1c-.7-.5-1.5-.9-2.6-1.2-1.1-.3-2.2-.5-3.5-.5-3.5 0-6.5.4-9 1.3s-4.6 2-6.3 3.3v36.2h13.6v6H588v-5.6l7.9-.7zm46.4-11l2.1 7.5c.4.7 1.2 1.3 2.4 2 1.2.6 2.6 1.1 4.2 1.5 1.6.4 3.3.6 5 .6 3.9 0 6.7-.7 8.3-2.1 1.7-1.4 2.5-3.3 2.5-5.8 0-1.7-.6-3.2-1.7-4.5-1.1-1.3-2.8-2.5-5-3.7-2.2-1.2-5.2-2.5-9-3.9-5.5-2-9.5-4.5-12-7.3s-3.8-6.4-3.8-10.8c0-3 .9-5.6 2.8-7.8 1.9-2.3 4.5-4 7.7-5.3 3.3-1.3 7-1.9 11.1-1.9 3.2 0 6 .3 8.4.8 2.4.5 4.8 1.1 7.3 1.9l1.9.6v12.6h-6.6l-2.2-6.9c-.4-.9-1.5-1.6-3.3-2.2-1.8-.6-3.8-.9-6.1-.9-3.2 0-5.6.6-7.3 1.9-1.7 1.3-2.6 3-2.6 5 0 1.8.5 3.4 1.5 4.7 1 1.3 2.3 2.3 3.8 3.1 1.5.8 3.6 1.7 6.4 2.8l2 .8c3.9 1.6 7.1 3.1 9.6 4.6 2.4 1.4 4.5 3.2 6.1 5.4 1.6 2.2 2.4 4.9 2.4 8.1 0 3.3-.9 6.2-2.7 8.7-1.8 2.5-4.4 4.5-7.9 5.8-3.4 1.4-7.5 2.1-12.2 2.1-3.5 0-7.2-.5-11.1-1.4-3.9-1-6.9-2-9.3-3v-13h7.3zm38.5-50.7l3.1-1.1-3.1-1-5.8-2.6 1.6-2.8 5.2 3.6 2.5 2.1-.7-3.2-.6-6.3h3.2l-.5 6.3-.6 3.2 2.4-2.2 5.2-3.7 1.6 2.7-5.7 2.7-3.1 1.1 3.1 1 5.8 2.6-1.6 2.9-5.1-3.6-2.6-2.1.7 3.2.7 6.3h-3.2l.5-6.3.6-3.3-2.4 2.2-5.1 3.7-1.6-2.8 5.5-2.6z"/>
  <path fill="#FFF" d="M150.3 202.9c-12.9-3.7-22.4-15.6-22.4-29.7 0-2.3.3-4.6.7-6.7h.1c12.1 1.1 21.5 10.9 21.5 23.8l.1 12.6zm21.5-46.8c.6 10.7-5.5 19.1-14.9 23.7 5.4 8.8 14.1 13.9 24.7 14.3-5.6 6.2-13.8 10.1-22.8 10.1-.9 0-1.7 0-2.6-.1v-24.6c0-10.1 5.5-19.7 15.6-23.4m-41.3 4.8c4.8-10.9 15.7-18.5 28.3-18.5 6.6 0 12.7 2.1 17.7 5.6 7.9 5.6 13.1 14.8 13.1 25.2 0 5.4-1.4 10.5-3.9 15-8.3.8-16.3-2.4-20.4-6.9 10.6-7.2 13.5-20.4 11.5-33.1-12.6 3.3-23.9 11.6-25.8 25.2-4.6-6.7-12-11.5-20.5-12.5m-14.8 12.4c0-23.8 19.3-43.1 43.1-43.1s43.1 19.3 43.1 43.1-19.3 43.1-43.1 43.1c-23.8-.1-43.1-19.4-43.1-43.1m43.1-36.7c-20.2 0-36.6 16.4-36.6 36.6 0 20.2 16.4 36.6 36.6 36.6 20.2 0 36.6-16.4 36.6-36.6 0-20.2-16.4-36.6-36.6-36.6m273.4 36.3c0-9 7.2-16.1 16.4-16.1 7.1 0 13 4.2 15.4 10.3l.3.7h-6.9c-1.9-3.3-5.1-5.3-8.8-5.3-5.6 0-10.1 4.7-10.1 10.3 0 5.7 4.5 10.4 10.1 10.4 3.7 0 6.8-2 8.8-5.3h6.9l-.3.7c-2.3 6.1-8.2 10.3-15.4 10.3-9.2 0-16.4-6.9-16.4-16m-200.1 15.3v-11.8l-11.6-18.9h7.3l7.6 13.3 7.4-13.3h7.1l-11.5 18.9v11.8m20-30.7l7.6 22.7 7.7-22.7h6.7l-11.1 30.7h-6.7l-11-30.7m70.4 8.1c0 1.9.4 2.4 7.1 4 4 .9 5.8 1.6 7.5 2.7 2.4 1.7 3.7 4 3.7 6.8 0 6.2-4.9 9.9-12.4 9.9-7.6 0-12.5-3.7-12.9-10.2h6.2c.5 3.4 2.8 5 7.1 5 3.8 0 5.8-1.7 5.8-4.2 0-1.3-.5-2.2-2.2-3-.6-.3-1.6-.6-2.6-.9l-1.1-.3-.6-.1c-4-1-7-2-8.4-3-2.1-1.4-3.2-3.6-3.2-6.3 0-5.7 4.6-9.3 11.5-9.3 6.8 0 11 3.2 11.6 9.1H333c-.7-2.7-2.4-3.9-5.7-3.9-3.6 0-5.3 1.5-5.3 3.7M489.4 176h-12.6v12.2h-6.2v-30.7h6.2v13h12.6v-13h6.2v30.7h-6.2m22.3-17.5h11.6v5.3h-11.6v6.7h16.2v5.5h-22.5v-30.7h22.5v5.5h-16.2m-101.5 20.2c-5.6 0-10.1-4.7-10.1-10.4s4.5-10.4 10.1-10.4 10 4.7 10 10.4c.1 5.8-4.5 10.4-10 10.4m0-26.4c-9.2 0-16.5 7.1-16.5 16.1 0 9 7.1 16 16.5 16 9.2 0 16.4-7.1 16.4-16.1.1-9-7.2-16-16.4-16m-32.1 14.3h-9.3v-8.2h9.3c2.3 0 4.1 1.8 4.1 4.1 0 2.2-1.9 4.1-4.1 4.1m4.4 4.3c3.5-1.3 6-4.7 6-8.7 0-5.1-4.1-9.3-9.2-9.3h-16.8v30.8h6.3V176h7.3l6 12.2h7.1l-6.7-12.8zm-89.7-4.7h11.6v5.3h-11.6v6.7H309v5.5h-22.4v-30.7H309v5.5h-16.2m258.5 8.1H542v-8.2h9.3c2.3 0 4.1 1.8 4.1 4.1 0 2.2-1.8 4.1-4.1 4.1m4.4 4.3c3.5-1.3 6-4.7 6-8.7 0-5.1-4.1-9.3-9.2-9.3h-16.8v30.8h6.3V176h7.3l6 12.2h7.1l-6.7-12.8zM5.2 25.2c3.5-6.1 8.2-10.8 14.2-13.9 6-3.2 12.7-4.8 20.2-4.8 4.7 0 8.9.3 12.7 1 3.8.7 7.6 1.4 11.3 2.3l-.8 16.7h-5.5L54.9 15c-1.2-.8-3.1-1.6-5.7-2.3s-6.1-1.1-10.5-1.1c-5.6 0-10.5 1.2-14.8 3.7-4.3 2.5-7.7 6.2-10.2 11.1-2.5 4.9-3.7 10.9-3.7 17.9 0 6.3 1 12.2 3 17.6 2 5.5 5.1 9.9 9.2 13.2 4.1 3.4 9.1 5 15 5 3.7 0 7.3-.4 10.6-1.3s6-2 7.9-3.5v-24L41 50.2v-5.6h30v5.6l-6.5 1.1V80c-.9 0-1.9.1-3.1.4-1.1.3-2.6.7-4.3 1.3-3.6 1.1-6.9 2-10.1 2.7-3.1.7-6.6 1-10.6 1-7.5 0-14-1.7-19.4-5-5.5-3.4-9.7-7.9-12.6-13.7C1.5 60.9 0 54.3 0 47c0-8.4 1.7-15.7 5.2-21.8zm78.7 55V35.1l-8.2-1.9v-4.8l13.4-1.7h.3l2 1.7v3.9l-.1 6.3h.1c.1-.1 1-1.3 2.7-3.3 1.7-2.1 4.3-4.1 7.7-6 3.4-1.9 6.9-2.9 10.4-2.9 1.2 0 2.2.2 3.2.5v9.9c-.3-.3-.9-.7-1.9-1-1-.3-2-.5-3-.5-4 0-7.5.6-10.4 1.9-2.9 1.3-5.5 2.8-7.7 4.6v38.6h14.1v4.8H75.4v-4.4l8.5-.6zm39.6-39.6c2.3-4.4 5.6-7.9 9.7-10.4s8.8-3.7 13.9-3.7c6.3 0 11.2 1.6 14.7 4.9 3.5 3.3 5.4 8 5.6 14.2v1.6c0 3.2-.2 5.5-.6 6.9h-37.7c0 .6 0 1 .1 1.3.1 5.3 1.1 9.7 2.8 13.3 1.7 3.6 4 6.3 6.8 8 2.8 1.8 6 2.6 9.5 2.6 2.9 0 5.9-.5 9.1-1.6 3.1-1.1 5.5-2.3 7.2-3.8l1.7 3.9c-2.1 2.1-5.1 3.9-8.9 5.4-3.9 1.4-7.8 2.2-11.8 2.2-5.4 0-10.1-1.2-13.9-3.7-3.8-2.5-6.7-5.9-8.7-10.4-1.9-4.4-2.9-9.6-2.9-15.4-.1-5.8 1-10.8 3.4-15.3zm34.4 8.5c.2-1.4.3-2.8.3-4.1 0-4-1.1-7.2-3.3-9.5-2.2-2.4-5.5-3.5-10-3.5-9.7 0-14.9 5.7-15.7 17.1h28.7zm19.9-8.5c2.3-4.4 5.6-7.9 9.7-10.4s8.8-3.7 13.9-3.7c6.3 0 11.2 1.6 14.7 4.9 3.5 3.3 5.4 8 5.6 14.2v1.6c0 3.2-.2 5.5-.6 6.9h-37.7c0 .6 0 1 .1 1.3.1 5.3 1.1 9.7 2.8 13.3 1.7 3.6 4 6.3 6.8 8 2.8 1.8 6 2.6 9.5 2.6 2.9 0 5.9-.5 9.1-1.6 3.1-1.1 5.5-2.3 7.2-3.8l1.7 3.9c-2.1 2.1-5.1 3.9-8.9 5.4-3.9 1.4-7.8 2.2-11.8 2.2-5.4 0-10.1-1.2-13.9-3.7-3.8-2.5-6.7-5.9-8.7-10.4-1.9-4.4-2.9-9.6-2.9-15.4-.2-5.8 1-10.8 3.4-15.3zm34.4 8.5c.2-1.4.3-2.8.3-4.1 0-4-1.1-7.2-3.3-9.5-2.2-2.4-5.5-3.5-10-3.5-9.7 0-14.9 5.7-15.7 17.1h28.7zm22.8 31v-45l-8.2-2.1v-4.8l13.5-1.7h.3l2.1 1.7V33l-.1 2.7c1.6-1.4 3.7-2.9 6.2-4.3s5.2-2.6 8.1-3.6c2.9-1 5.5-1.4 8-1.4 4.5 0 7.9.9 10.4 2.6 2.4 1.7 4.1 4.3 5.1 7.8.9 3.5 1.4 8.1 1.4 14v29.3l8 .8v4.4H266v-4.4l7.3-.8V50.8c0-4.3-.3-7.7-.9-10.2-.6-2.5-1.8-4.4-3.5-5.6-1.7-1.3-4.3-1.9-7.6-1.9-2.8 0-5.9.7-9.1 2.1-3.3 1.4-6.1 3.1-8.6 5v39.9l7.7.8v4.4h-23.4v-4.4l7.1-.8zm68.6-1.7V13.6l-8.5-1.3V6.6h30.8v5.7l-10 1.3v64.3H342l6.3-17.8 6.9 1.2-3.5 23.9h-56.8v-5.6l8.7-1.2zm58.6-37.9c2.4-4.5 5.7-8 9.9-10.4 4.2-2.5 9-3.7 14.3-3.7 6.6 0 11.7 1.7 15.4 5 3.6 3.3 5.6 8.1 5.8 14.3v1.7c0 3.3-.2 5.8-.6 7.6h-35.8c.1 5.1 1 9.3 2.6 12.6 1.6 3.3 3.7 5.8 6.3 7.4 2.6 1.6 5.5 2.4 8.7 2.4 2.8 0 5.7-.5 8.7-1.5 3-1 5.3-2.1 7-3.4l2.2 5c-1.3 1.3-3.1 2.6-5.4 3.8s-4.8 2.2-7.7 2.9c-2.8.7-5.6 1.1-8.4 1.1-5.8 0-10.7-1.2-14.7-3.7s-7-5.9-8.9-10.3c-2-4.4-2.9-9.5-2.9-15.4 0-5.7 1.2-10.9 3.5-15.4zm33 8.5c.1-1.1.2-2.3.2-3.8 0-3.8-.9-6.8-2.7-9.1s-4.6-3.4-8.5-3.4c-3.9 0-6.9 1.2-9.2 3.7-2.3 2.5-3.5 6.7-3.9 12.6h24.1zm52.8-2.8c0-2.8-.3-5-1-6.5-.7-1.6-1.8-2.8-3.5-3.5-1.7-.7-4-1.1-7-1.1-5.8 0-12 1.4-18.4 4.3h-.1l-2.6-4.7c.9-.8 2.7-1.9 5.4-3.2 2.6-1.3 5.6-2.5 9-3.4 3.4-1 6.6-1.5 9.6-1.5 5 0 9 .7 11.9 2 2.9 1.3 5 3.4 6.2 6.3 1.3 2.9 1.9 6.7 1.9 11.6v32.2h6.3v5.1c-5 1.2-8.8 1.8-11.4 1.8-1.4 0-2.6-.1-3.3-.4-.8-.2-1.3-.7-1.7-1.5-.4-.7-.5-1.9-.5-3.4v-2.5c-1.9 1.8-4.3 3.6-7.3 5.2-3 1.7-6.4 2.5-10.2 2.5-3.3 0-6.3-.6-9-1.8-2.7-1.2-4.9-3.1-6.5-5.6-1.6-2.5-2.4-5.7-2.4-9.4 0-4.6 1.6-8.4 4.8-11.4 3.2-3 7.4-5.2 12.6-6.6 5.2-1.4 11-2.1 17.3-2.1v-2.4zm0 8.1c-5.1 0-9.2.6-12.5 1.7-3.3 1.2-5.6 2.7-7.1 4.6-1.5 1.9-2.2 4.1-2.2 6.5 0 3.6.9 6.3 2.7 8 1.8 1.7 4.2 2.5 7.2 2.5 1.6 0 3.6-.5 5.9-1.4 2.3-.9 4.3-2 6-3.3V54.3zm25.5-12.6c2.4-4.7 6-8.4 10.6-11.2 4.6-2.7 10-4.1 16.2-4.1 3 0 6.2.3 9.4 1V8.1l-10.4-1v-5L518.6 0h.3l2.5 1.9v76.3h6.1v5.4c-2.2.6-4.2 1-6 1.3-1.7.3-3.5.5-5.4.5-1.3 0-2.4-.1-3.2-.4-.8-.3-1.4-.8-1.8-1.6-.4-.8-.6-1.9-.6-3.4v-2.7c-2.1 2.3-4.7 4.2-7.7 5.8-3 1.5-6.4 2.3-10.1 2.3-4.2 0-8.1-1-11.6-3.1s-6.3-5.2-8.4-9.4c-2.1-4.2-3.1-9.4-3.1-15.5.2-5.8 1.5-11 3.9-15.7zm36.2-5.9c-.5-.9-1.8-1.6-3.7-2.3-2-.6-4.1-1-6.4-1-5.2 0-9.3 1.9-12.4 5.8-3.1 3.9-4.7 9.9-4.7 18.2 0 4.7.7 8.6 2 11.7 1.3 3.1 3.1 5.4 5.4 6.9 2.3 1.5 4.8 2.2 7.7 2.2 2.5 0 4.8-.5 6.9-1.6 2.1-1 3.8-2.2 5.1-3.6V35.8zm26.6 4.7c2.4-4.5 5.7-8 9.9-10.4 4.2-2.5 9-3.7 14.3-3.7 6.6 0 11.7 1.7 15.4 5 3.6 3.3 5.6 8.1 5.8 14.3v1.7c0 3.3-.2 5.8-.6 7.6h-35.8c.1 5.1 1 9.3 2.6 12.6 1.6 3.3 3.7 5.8 6.3 7.4 2.6 1.6 5.5 2.4 8.7 2.4 2.8 0 5.7-.5 8.7-1.5 3-1 5.3-2.1 7-3.4l2.2 5c-1.3 1.3-3.1 2.6-5.4 3.8s-4.8 2.2-7.7 2.9c-2.8.7-5.6 1.1-8.4 1.1-5.8 0-10.7-1.2-14.7-3.7s-7-5.9-8.9-10.3c-2-4.4-2.9-9.5-2.9-15.4 0-5.7 1.2-10.9 3.5-15.4zm33 8.5c.1-1.1.2-2.3.2-3.8 0-3.8-.9-6.8-2.7-9.1s-4.6-3.4-8.5-3.4c-3.9 0-6.9 1.2-9.2 3.7-2.3 2.5-3.5 6.7-3.9 12.6h24.1zm26.6 29.9V37l-7.3-2.1v-6.2l14.8-2.1h.3l2.5 2V32l-.1 7h.1c.6-1.2 1.8-2.8 3.6-4.7 1.8-2 4.1-3.8 6.9-5.4 2.8-1.6 5.9-2.5 9.2-2.5 1.3 0 2.5.2 3.4.6v13.1c-.7-.5-1.5-.9-2.6-1.2-1.1-.3-2.2-.5-3.5-.5-3.5 0-6.5.4-9 1.3s-4.6 2-6.3 3.3v36.2h13.6v6H588v-5.6l7.9-.7zm46.5-11l2.1 7.5c.4.7 1.2 1.3 2.4 2 1.2.6 2.6 1.1 4.2 1.5 1.6.4 3.3.6 5 .6 3.9 0 6.7-.7 8.3-2.1 1.7-1.4 2.5-3.3 2.5-5.8 0-1.7-.6-3.2-1.7-4.5-1.1-1.3-2.8-2.5-5-3.7-2.2-1.2-5.2-2.5-9-3.9-5.5-2-9.5-4.5-12-7.3s-3.8-6.4-3.8-10.8c0-3 .9-5.6 2.8-7.8 1.9-2.3 4.5-4 7.7-5.3 3.3-1.3 7-1.9 11.1-1.9 3.2 0 6 .3 8.4.8 2.4.5 4.8 1.1 7.3 1.9l1.9.6v12.6H668l-2.2-6.9c-.4-.9-1.5-1.6-3.3-2.2-1.8-.6-3.8-.9-6.1-.9-3.2 0-5.6.6-7.3 1.9-1.7 1.3-2.6 3-2.6 5 0 1.8.5 3.4 1.5 4.7 1 1.3 2.3 2.3 3.8 3.1 1.5.8 3.6 1.7 6.4 2.8l2 .8c3.9 1.6 7.1 3.1 9.6 4.6 2.4 1.4 4.5 3.2 6.1 5.4 1.6 2.2 2.4 4.9 2.4 8.1 0 3.3-.9 6.2-2.7 8.7-1.8 2.5-4.4 4.5-7.9 5.8-3.4 1.4-7.5 2.1-12.2 2.1-3.5 0-7.2-.5-11.1-1.4-3.9-1-6.9-2-9.3-3v-13h7.3zm38.5-50.7l3.1-1.1-3.1-1-5.8-2.6 1.6-2.8 5.2 3.6 2.5 2.1-.7-3.2-.6-6.3h3.2l-.5 6.3-.6 3.2 2.4-2.2 5.2-3.7 1.6 2.7-5.7 2.7-3.1 1.1 3.1 1 5.8 2.6-1.6 2.9-5.1-3.6-2.6-2.1.7 3.2.7 6.3h-3.2l.5-6.3.6-3.3L682 19l-5.1 3.7-1.6-2.8 5.6-2.7z"/>
</svg>