<svg xmlns="http://www.w3.org/2000/svg" width="100" height="100" viewBox="0 0 100 100">
  <g fill="none" fill-rule="evenodd">
    <path fill="#FFF" d="M7,50.1 C7,26.3 26.3,7 50,7 C73.8,7 93.1,26.3 93.1,50.1 C93.1,73.9 73.8,93.2 50,93.2 C26.3,93.1 7,73.8 7,50.1 L7,50.1 Z"/>
    <path fill="#919844" fill-rule="nonzero" d="M41.6,79.7 C28.7,76 19.2,64.1 19.2,50 C19.2,47.7 19.5,45.4 19.9,43.3 L20,43.3 C32.1,44.4 41.5,54.2 41.5,67.1 L41.6,79.7 Z M63,32.9 C63.6,43.6 57.5,52 48.1,56.6 C53.5,65.4 62.2,70.5 72.8,70.9 C67.2,77 59.1,80.9 50,80.9 C49.1,80.9 48.3,80.9 47.4,80.8 L47.4,56.2 C47.5,46.2 53,36.6 63,32.9 L63,32.9 Z M21.8,37.7 C26.5,26.8 37.4,19.2 50,19.2 C56.6,19.2 62.7,21.3 67.7,24.8 C75.6,30.4 80.8,39.6 80.8,50 C80.8,55.4 79.4,60.5 76.9,65 C68.6,65.8 60.6,62.6 56.5,58.1 C67.3,50.9 70.2,37.7 68.1,25 C55.5,28.3 44.2,36.6 42.3,50.2 C37.7,43.5 30.3,38.7 21.8,37.7 L21.8,37.7 Z M7,50.1 C7,26.3 26.3,7 50,7 C73.8,7 93.1,26.3 93.1,50.1 C93.1,73.9 73.8,93.2 50,93.2 C26.3,93.1 7,73.8 7,50.1 L7,50.1 Z M50,13.4 C29.8,13.4 13.4,29.8 13.4,50 C13.4,70.3 29.8,86.7 50,86.7 C70.2,86.7 86.6,70.3 86.6,50.1 C86.7,29.8 70.3,13.4 50,13.4 L50,13.4 Z"/>
  </g>
</svg>
