<svg xmlns="http://www.w3.org/2000/svg" width="123" height="50" viewBox="0 0 123 50">
  <g fill="none" fill-rule="evenodd">
    <path fill="#A1A93E" d="M22.500507,2.38446411 C14.7483868,2.38446411 8.45847161,8.47836775 8.45847161,16 C8.45847161,23.5196657 14.7483868,29.6150442 22.500507,29.6150442 C30.2556692,29.6150442 36.5430494,23.5196657 36.5430494,16 C36.5430494,8.47836775 30.2556692,2.38446411 22.500507,2.38446411 L22.500507,2.38446411 Z M6,16 C6,7.16371681 13.387583,0 22.500507,0 C31.613431,0 39,7.16371681 39,16 C39,24.8372665 31.613431,32 22.500507,32 C13.387583,32 6,24.8372665 6,16 L6,16 Z M11.6561578,11.3987217 C13.4818861,7.36135693 17.6591077,4.53244838 22.500507,4.53244838 C25.0319875,4.53244838 27.3743547,5.30186824 29.2999631,6.61504425 C32.3409845,8.68977384 34.3264196,12.1204523 34.3264196,16 C34.3264196,18.0201573 33.7879794,19.9169125 32.8434274,21.5668633 C29.6579093,21.8574238 26.5910306,20.6720747 25.0335085,18.9965585 C29.1042588,16.3121927 30.2161228,11.4183874 29.4257006,6.70108161 C24.5969764,7.93264503 20.262583,10.9985251 19.5264104,16.0757129 C17.7600018,13.5545723 14.9278669,11.7930187 11.6561578,11.3987217 L11.6561578,11.3987217 Z M27.4711928,9.61946903 C27.7175977,13.5875123 25.3721884,16.7158309 21.7790376,18.4198623 C23.8673949,21.7045231 27.1918326,23.5747296 31.2352046,23.7315634 C29.0718105,26.0285152 25.9598083,27.4695182 22.500507,27.4695182 C22.1684181,27.4695182 21.8419063,27.4547689 21.5204646,27.4292035 L21.5219856,18.2763029 C21.5204646,14.5521141 23.6341722,11.0142576 27.4711928,9.61946903 L27.4711928,9.61946903 Z M19.2440081,27.0285152 C14.2956305,25.6563422 10.6725664,21.2379548 10.6725664,16 C10.6725664,15.1396264 10.7719395,14.2999017 10.9544617,13.4945919 L11.0031342,13.4995084 C15.625507,13.9228122 19.2429941,17.5516224 19.2429941,22.3308751 L19.2440081,27.0285152 Z"/>
    <path fill="#5D4417" d="M76.1543364,44.5229224 C76.1543364,41.430691 78.7544626,39 82.0734444,39 C84.6335539,39 86.7626392,40.4395265 87.5991345,42.5144619 L87.6984533,42.7606485 L85.2236808,42.7606485 C84.5380922,41.6420355 83.390141,40.950696 82.0734444,40.950696 C80.0730877,40.950696 78.4463817,42.5447195 78.4463817,44.4935817 C78.4463817,46.4424439 80.0730877,48.0488455 82.0734444,48.0488455 C83.390141,48.0488455 84.5380922,47.3593398 85.2236808,46.2388931 L87.6984533,46.2388931 L87.5991345,46.4837043 C86.7626392,48.5613903 84.6335539,50 82.0734444,50 C78.7544626,50 76.1543364,47.617446 76.1543364,44.5229224 L76.1543364,44.5229224 Z M4.17186949,49.7620655 L4.17186949,45.7061765 L0,39.2379345 L2.6160365,39.2379345 L5.34151647,43.7816121 L8.03276523,39.2379345 L10.5841963,39.2379345 L6.42920139,45.7217638 L6.42920139,49.7620655 L4.17186949,49.7620655 Z M13.627882,39.2379345 L16.3687901,47.022839 L19.138626,39.2379345 L21.5492752,39.2379345 L17.5437405,49.7620655 L15.1417697,49.7620655 L11.1849301,39.2379345 L13.627882,39.2379345 Z M36.4967466,42.0197966 C36.4967466,42.6749187 36.6360821,42.8555472 39.0592667,43.3836793 C40.4892638,43.7045928 41.1627992,43.9246478 41.752444,44.2936984 C42.6202777,44.8607985 43.0754082,45.6507043 43.0754082,46.62674 C43.0754082,48.7507293 41.3214199,49.9981662 38.6002791,49.9981662 C35.852139,49.9981662 34.1164716,48.7172626 33.9448334,46.4960824 L36.1848086,46.4960824 C36.3844104,47.6509127 37.2059596,48.2148037 38.7429895,48.2148037 C40.1238094,48.2148037 40.8489327,47.6389931 40.8489327,46.7959073 C40.8489327,46.3337918 40.6541522,46.054597 40.0563112,45.7689839 C39.8374243,45.6827957 39.4883622,45.5668084 39.1306219,45.477411 L38.7193652,45.3866383 L38.4932463,45.3407935 C37.0410712,44.9914562 35.9567612,44.6503709 35.4751135,44.3216637 C34.7128662,43.8407519 34.3155912,43.0976077 34.3155912,42.1733767 C34.3155912,40.2213053 35.9861711,39.0022922 38.4691398,39.0022922 C40.9043776,39.0022922 42.4317649,40.1085271 42.636188,42.1137784 L40.4275512,42.1137784 C40.1913076,41.1780862 39.5476642,40.7691506 38.3577678,40.7691506 C37.1244797,40.7691506 36.4967466,41.2688589 36.4967466,42.0197966 L36.4967466,42.0197966 Z M96.7162098,45.5718513 L92.2131171,45.5718513 L92.2131171,49.7620655 L89.9567494,49.7620655 L89.9567494,39.2379345 L92.2131171,39.2379345 L92.2131171,43.6862549 L96.7162098,43.6862549 L96.7162098,39.2379345 L98.9745059,39.2379345 L98.9745059,49.7620655 L96.7162098,49.7620655 L96.7162098,45.5718513 Z M104.756207,43.7628157 L108.91747,43.7628157 L108.91747,45.5718513 L104.756207,45.5718513 L104.756207,47.8755522 L110.588049,47.8755522 L110.588049,49.7620655 L102.497911,49.7620655 L102.497911,39.2379345 L110.588049,39.2379345 L110.588049,41.122614 L104.756207,41.122614 L104.756207,43.7628157 Z M74.1583189,44.4935817 C74.1583189,47.5862716 71.5499965,50 68.2512641,50 C64.9004617,50 62.3282991,47.617446 62.3282991,44.5229224 C62.3282991,41.430691 64.9342108,39 68.2512641,39 C71.5678353,39 74.1583189,41.4151038 74.1583189,44.4935817 L74.1583189,44.4935817 Z M64.6242013,44.4935817 C64.6242013,46.4580312 66.2528359,48.0488455 68.2512641,48.0488455 C70.2313714,48.0488455 71.8580774,46.4580312 71.8580774,44.4935817 C71.8580774,42.5447195 70.2492102,40.950696 68.2512641,40.950696 C66.2528359,40.950696 64.6242013,42.5447195 64.6242013,44.4935817 L64.6242013,44.4935817 Z M53.3341669,41.0767692 L53.3341669,43.8833875 L56.6849693,43.8833875 C57.5016973,43.8833875 58.1607687,43.2557723 58.1607687,42.4814537 C58.1607687,41.7066767 57.5055543,41.0767692 56.695094,41.0767692 L53.3341669,41.0767692 Z M60.675558,49.7620655 L60.3616915,49.7620655 L58.1410014,49.7620655 L55.9661137,45.5718513 L53.3341669,45.5718513 L53.3341669,49.7620655 L51.0797278,49.7620655 L51.0797278,39.2379345 L57.1121363,39.2379345 C58.9533902,39.2379345 60.4349752,40.6568309 60.4349752,42.403976 C60.4349752,43.7628157 59.5372494,44.9199383 58.2779263,45.3710511 L60.675558,49.7620655 Z M26.0162082,43.7628157 L30.1779529,43.7628157 L30.1779529,45.5718513 L26.0162082,45.5718513 L26.0162082,47.8755522 L31.8466043,47.8755522 L31.8466043,49.7620655 L23.7588763,49.7620655 L23.7588763,39.2379345 L31.8466043,39.2379345 L31.8466043,41.122614 L26.0162082,41.122614 L26.0162082,43.7628157 Z M115.66102,41.0767692 L115.66102,43.8833875 L119.01375,43.8833875 C119.828068,43.8833875 120.487621,43.2557723 120.487621,42.4814537 C120.487621,41.7066767 119.833853,41.0767692 119.021465,41.0767692 L115.66102,41.0767692 Z M123,49.7620655 L122.688062,49.7620655 L120.4693,49.7620655 L118.292484,45.5718513 L115.66102,45.5718513 L115.66102,49.7620655 L113.40658,49.7620655 L113.40658,39.2379345 L119.440918,39.2379345 C121.277832,39.2379345 122.761828,40.6568309 122.761828,42.403976 C122.761828,43.7628157 121.86362,44.9199383 120.60285,45.3710511 L123,49.7620655 Z"/>
  </g>
</svg>
